<svg width="20" height="21" viewBox="0 0 20 21" fill="none" xmlns="http://www.w3.org/2000/svg">
<rect y="0.5" width="20" height="20" rx="10" fill="black"/>
<g clip-path="url(#clip0_1051_2644)">
<path d="M6.65737 6.07288C9.17145 6.07288 11.2094 8.125 11.2094 10.6563C11.2094 13.1875 9.1713 15.2395 6.65737 15.2395C4.14343 15.2395 2.10522 13.1875 2.10522 10.6563C2.10522 8.125 4.14328 6.07288 6.65737 6.07288ZM13.9268 6.34136C15.1839 6.34136 16.2029 8.27301 16.2029 10.6563H16.203C16.203 13.0389 15.184 14.9712 13.927 14.9712C12.6699 14.9712 11.6509 13.0389 11.6509 10.6563C11.6509 8.27363 12.6698 6.34136 13.9268 6.34136ZM17.4451 6.79079C17.8871 6.79079 18.2456 8.52139 18.2456 10.6563C18.2456 12.7905 17.8872 14.5217 17.4451 14.5217C17.0029 14.5217 16.6447 12.791 16.6447 10.6563C16.6447 8.52154 17.0031 6.79079 17.4451 6.79079Z" fill="white"/>
</g>
<defs>
<clipPath id="clip0_1051_2644">
<rect width="16.1404" height="16.1404" fill="white" transform="translate(2.10522 2.60529)"/>
</clipPath>
</defs>
</svg>
