<svg width="22" height="22" viewBox="0 0 22 22" fill="none" xmlns="http://www.w3.org/2000/svg">
<rect x="0.5" y="0.5" width="21" height="21" rx="4.5" fill="#DEFFC6"/>
<rect x="0.5" y="0.5" width="21" height="21" rx="4.5" stroke="#48CD00"/>
<path d="M7.97494 12.998L7.98033 13.0035L9.11118 14.1501C9.11127 14.1502 9.11137 14.1503 9.11146 14.1504C10.0053 15.0548 11.0211 16.0761 12.1589 17.2145L7.97494 12.998ZM7.97494 12.998L7.96944 12.9927M7.97494 12.998L7.96944 12.9927M6.29129 5.76023H6.00913C5.99222 5.76023 5.94768 5.76353 5.86909 5.78544C5.86819 5.78601 5.86629 5.78729 5.86343 5.7896C5.86225 5.79112 5.86122 5.79248 5.86035 5.79368C5.84221 5.88157 5.82553 5.96947 5.81029 6.05743C5.80949 6.11631 5.80869 6.17477 5.8079 6.23284C5.87135 6.14053 5.94502 6.05331 6.02868 5.97188L6.29129 5.76023ZM6.29129 5.76023C6.19887 5.821 6.11113 5.89161 6.0287 5.97185L6.29129 5.76023ZM5.7806 8.09074C5.78037 8.34814 5.77771 8.6009 5.77277 8.84914L5.7806 8.09074ZM5.7806 8.09074C5.84992 8.19827 5.93272 8.29927 6.02865 8.39264L5.7806 8.09074ZM7.96944 12.9927C7.5953 12.6285 7.26564 12.3012 6.98 12.0104L6.97984 12.0102M7.96944 12.9927L6.97984 12.0102M6.97984 12.0102C6.68876 11.714 6.45012 11.4726 6.26438 11.2869M6.97984 12.0102L6.26438 11.2869M6.26438 11.2869C6.26432 11.2868 6.26425 11.2867 6.26419 11.2867M6.26438 11.2869L6.26419 11.2867M6.26419 11.2867L5.99413 11.0164L6.26419 11.2867ZM12.3093 17.2492C12.2522 17.2444 12.2071 17.2333 12.1704 17.2193L8.43542 5.97902C8.35211 5.89568 8.26306 5.82271 8.16902 5.76023H10.6571H10.8348L10.8504 5.75241C10.8539 5.75259 10.8571 5.75278 10.8602 5.75296C10.8674 5.75705 10.8776 5.76318 10.891 5.77193C10.9351 5.8017 10.9587 5.82236 10.9686 5.83208C10.969 5.83241 10.9693 5.83273 10.9696 5.83304L17.1045 12.001C17.2401 12.1676 17.2497 12.2583 17.25 12.2833C17.2502 12.3014 17.2479 12.3737 17.1279 12.512L12.4422 17.2148C12.4209 17.2288 12.4031 17.2363 12.3881 17.2409C12.3621 17.2488 12.3376 17.2515 12.3093 17.2492ZM5.77801 10.5564C5.76133 10.5021 5.75 10.4344 5.75 10.3485V10.0732C5.75 9.93858 5.75241 9.76665 5.75739 9.5559L5.77801 10.5564ZM5.7574 9.55556C5.76258 9.34025 5.76769 9.10475 5.77277 8.84919L5.7574 9.55556ZM7.23228 8.88063C7.69153 8.88063 8.1079 8.71313 8.43533 8.38561L6.02879 8.39278C6.35857 8.71381 6.77357 8.88063 7.23228 8.88063ZM8.43544 8.3855C8.76306 8.05782 8.93017 7.64123 8.93017 7.18227C8.93017 6.72322 8.763 6.30673 8.43547 5.97907L8.43544 8.3855Z" stroke="#48CD00" stroke-width="1.5"/>
</svg>
