<svg xmlns="http://www.w3.org/2000/svg" width="24" height="24" viewBox="0 0 24 24" fill="none">
  <path d="M12 24C18.6274 24 24 18.6274 24 12C24 5.37258 18.6274 0 12 0C5.37258 0 0 5.37258 0 12C0 18.6274 5.37258 24 12 24Z" fill="url(#paint0_linear_206_91)"/>
  <path d="M8.12311 12.8682L9.54681 16.8088C9.54681 16.8088 9.72481 17.1775 9.91541 17.1775C10.106 17.1775 12.9409 14.2283 12.9409 14.2283L16.0934 8.13928L8.17391 11.851L8.12311 12.8682Z" fill="#C8DAEA"/>
  <path d="M10.0099 13.8833L9.7366 16.7879C9.7366 16.7879 9.6222 17.6779 10.512 16.7879C11.4018 15.8979 12.2535 15.2116 12.2535 15.2116" fill="#A9C6D8"/>
  <path d="M8.14852 13.0068L5.21993 12.0526C5.21993 12.0526 4.86993 11.9106 4.98263 11.5886C5.00583 11.5222 5.05263 11.4657 5.19263 11.3686C5.84153 10.9163 17.2032 6.83261 17.2032 6.83261C17.2032 6.83261 17.524 6.72451 17.7132 6.79641C17.76 6.81089 17.8021 6.83756 17.8353 6.87366C17.8684 6.90977 17.8913 6.95403 17.9017 7.00191C17.9222 7.08647 17.9307 7.17348 17.9271 7.26041C17.9262 7.33561 17.9171 7.40531 17.9102 7.51461C17.841 8.63111 15.7702 16.9639 15.7702 16.9639C15.7702 16.9639 15.6463 17.4515 15.2024 17.4682C15.0933 17.4717 14.9847 17.4533 14.8829 17.4139C14.7811 17.3745 14.6882 17.315 14.6099 17.239C13.7388 16.4897 10.728 14.4663 10.0627 14.0213C10.0477 14.0111 10.0351 13.9978 10.0257 13.9822C10.0162 13.9667 10.0103 13.9493 10.0081 13.9313C9.99883 13.8844 10.0498 13.8263 10.0498 13.8263C10.0498 13.8263 15.2924 9.16631 15.4319 8.67711C15.4427 8.63921 15.4019 8.62051 15.3471 8.63711C14.9989 8.76521 8.96273 12.5771 8.29653 12.9978C8.24857 13.0123 8.19788 13.0154 8.14852 13.0068Z" fill="white"/>
  <defs>
    <linearGradient id="paint0_linear_206_91" x1="12" y1="24" x2="12" y2="0" gradientUnits="userSpaceOnUse">
      <stop stop-color="#1D93D2"/>
      <stop offset="1" stop-color="#38B0E3"/>
    </linearGradient>
  </defs>
</svg>