<svg xmlns="http://www.w3.org/2000/svg" width="33" height="32" viewBox="0 0 33 32" fill="none">
  <g clip-path="url(#clip0_167_2453)">
    <path d="M23.0417 8V11.2M13.0417 27.3333C7.51888 27.3333 3.04175 25.8409 3.04175 24V18.6667V13.3333V8" stroke="white" stroke-width="1.6" stroke-linecap="round" stroke-linejoin="round"/>
    <path d="M18.6892 16.311L15.856 21.2184L20.7633 24.0517L23.5966 19.1443L18.6892 16.311Z" stroke="white" stroke-width="1.6" stroke-linejoin="round"/>
    <mask id="path-3-inside-1_167_2453" fill="white">
      <path d="M22.5531 20.7201L23.1487 19.7477C22.5789 19.4376 21.8504 19.6216 21.5215 20.1586L22.5531 20.7201ZM20.7663 23.6374L19.7347 23.0759C19.4058 23.613 19.601 24.2997 20.1707 24.6098L20.7663 23.6374ZM21.9575 21.6925L29.6944 25.9032L30.8855 23.9584L23.1487 19.7477L21.9575 21.6925ZM29.0988 26.8756L21.3619 22.6649L20.1707 24.6098L27.9076 28.8205L29.0988 26.8756ZM21.7979 24.1988L23.5846 21.2815L21.5215 20.1586L19.7347 23.0759L21.7979 24.1988ZM29.9123 26.6702C29.7479 26.9387 29.3836 27.0307 29.0988 26.8756L27.9076 28.8205C29.3319 29.5957 31.1532 29.1357 31.9755 27.793L29.9123 26.6702ZM29.6944 25.9032C29.9792 26.0583 30.0768 26.4016 29.9123 26.6702L31.9755 27.793C32.7978 26.4504 32.3098 24.7336 30.8855 23.9584L29.6944 25.9032Z"/>
    </mask>
    <path d="M30.3766 26.3211L31.5677 24.3762L30.2033 23.5406L29.0121 25.4854L30.3766 26.3211ZM28.5898 29.2383L29.781 27.2935L28.4166 26.4578L27.2254 28.4026L28.5898 29.2383ZM32.3579 27.0903L30.2948 25.9675L29.5299 27.3728L31.5931 28.4957L32.3579 27.0903ZM22.5531 20.7201L21.7882 22.1254L23.1235 22.8521L23.9175 21.5558L22.5531 20.7201ZM21.5215 20.1586L20.157 19.323L20.157 19.323L21.5215 20.1586ZM20.7663 23.6374L22.1307 24.4731L23.0103 23.037L21.5312 22.232L20.7663 23.6374ZM19.7347 23.0759L18.3703 22.2403L18.3702 22.2404L19.7347 23.0759ZM21.9575 21.6925L20.5931 20.8569L19.7135 22.2929L21.1926 23.0979L21.9575 21.6925ZM29.6944 25.9032L28.9295 27.3086L28.9296 27.3086L29.6944 25.9032ZM30.8855 23.9584L31.6504 22.5531L31.6504 22.553L30.8855 23.9584ZM29.0988 26.8756L29.8637 25.4704L29.8636 25.4703L29.0988 26.8756ZM21.3619 22.6649L22.1267 21.2596L20.7915 20.5329L19.9975 21.8292L21.3619 22.6649ZM27.9076 28.8205L28.6725 27.4151L28.6724 27.4151L27.9076 28.8205ZM21.7979 24.1988L21.033 25.6042L22.3683 26.3309L23.1623 25.0345L21.7979 24.1988ZM23.5846 21.2815L24.949 22.1172L25.8286 20.6811L24.3495 19.8762L23.5846 21.2815ZM23.9175 21.5558L24.5131 20.5834L21.7842 18.912L21.1887 19.8844L23.9175 21.5558ZM23.9135 18.3423C22.6321 17.6449 20.9523 18.0245 20.157 19.323L22.8859 20.9943C22.8138 21.112 22.7122 21.1677 22.6365 21.1868C22.5612 21.2058 22.4704 21.2002 22.3838 21.153L23.9135 18.3423ZM20.7566 21.564L21.7882 22.1254L23.3179 19.3147L22.2863 18.7533L20.7566 21.564ZM21.5312 22.232L20.4995 21.6706L18.9699 24.4813L20.0015 25.0427L21.5312 22.232ZM18.3702 22.2404C17.5383 23.5989 18.0742 25.2905 19.406 26.0152L20.9355 23.2044C21.0263 23.2538 21.1155 23.3523 21.1548 23.4905C21.1947 23.6309 21.1748 23.788 21.0992 23.9115L18.3702 22.2404ZM21.5351 25.4455L22.1307 24.4731L19.4019 22.8017L18.8063 23.7741L21.5351 25.4455ZM21.1926 23.0979L28.9295 27.3086L30.4592 24.4979L22.7223 20.2872L21.1926 23.0979ZM31.6504 22.553L23.9135 18.3423L22.3838 21.153L30.1207 25.3637L31.6504 22.553ZM21.7842 18.912L20.5931 20.8569L23.3219 22.5282L24.5131 20.5834L21.7842 18.912ZM29.8636 25.4703L22.1267 21.2596L20.5971 24.0703L28.3339 28.281L29.8636 25.4703ZM19.9975 21.8292L18.8063 23.7741L21.5352 25.4454L22.7263 23.5006L19.9975 21.8292ZM19.4059 26.0151L27.1428 30.2258L28.6724 27.4151L20.9356 23.2044L19.4059 26.0151ZM23.1623 25.0345L24.949 22.1172L22.2202 20.4458L20.4334 23.3631L23.1623 25.0345ZM24.3495 19.8762L22.2863 18.7533L20.7566 21.564L22.8198 22.6869L24.3495 19.8762ZM20.157 19.323L18.3703 22.2403L21.0991 23.9116L22.8859 20.9943L20.157 19.323ZM18.9699 24.4813L21.033 25.6042L22.5627 22.7935L20.4996 21.6706L18.9699 24.4813ZM28.5478 25.8346C28.8497 25.3417 29.4368 25.2379 29.8637 25.4704L28.3338 28.2809C29.3305 28.8235 30.6461 28.5357 31.2768 27.5057L28.5478 25.8346ZM27.1427 30.2258C29.2787 31.3884 32.0513 30.7327 33.3399 28.6287L30.6111 26.9574C30.2551 27.5386 29.385 27.8029 28.6725 27.4151L27.1427 30.2258ZM28.9296 27.3086C28.4523 27.0489 28.2093 26.3874 28.5478 25.8346L31.2768 27.5057C31.9442 26.4158 31.5062 25.0676 30.4591 24.4978L28.9296 27.3086ZM33.3399 28.6287C34.6655 26.4644 33.8365 23.7428 31.6504 22.5531L30.1207 25.3637C30.7831 25.7243 30.9302 26.4363 30.6111 26.9574L33.3399 28.6287Z" fill="white" mask="url(#path-3-inside-1_167_2453)"/>
    <path d="M24.8063 15.9167L20.8804 13.65C20.0673 13.1806 19.0277 13.4592 18.5582 14.2723C18.0888 15.0853 18.3674 16.125 19.1805 16.5945L23.1064 18.8611C23.9194 19.3305 24.9591 19.0519 25.4286 18.2389C25.898 17.4258 25.6194 16.3861 24.8063 15.9167Z" stroke="white" stroke-width="1.6" stroke-linejoin="round"/>
    <path d="M20.2731 23.7683L16.3472 21.5017C15.5341 21.0323 14.4944 21.3109 14.025 22.124C13.5556 22.937 13.8342 23.9767 14.6472 24.4462L18.5732 26.7128C19.3862 27.1822 20.4259 26.9036 20.8954 26.0905C21.3648 25.2775 21.0862 24.2378 20.2731 23.7683Z" stroke="white" stroke-width="1.6" stroke-linejoin="round"/>
    <path d="M23.0417 7.99996C23.0417 9.84089 18.5646 11.3333 13.0417 11.3333C7.51888 11.3333 3.04175 9.84089 3.04175 7.99996C3.04175 6.15901 7.51888 4.66663 13.0417 4.66663C18.5646 4.66663 23.0417 6.15901 23.0417 7.99996Z" stroke="white" stroke-width="1.6" stroke-linecap="round" stroke-linejoin="round"/>
    <path d="M3.04175 18.6666C3.04175 20.2477 6.34414 21.5717 10.7751 21.914" stroke="white" stroke-width="1.6" stroke-linecap="round" stroke-linejoin="round"/>
    <path d="M3.04175 13.3334C3.04175 15.1743 7.51888 16.6667 13.0417 16.6667" stroke="white" stroke-width="1.6" stroke-linecap="round" stroke-linejoin="round"/>
  </g>
  <defs>
    <clipPath id="clip0_167_2453">
      <rect width="32" height="32" fill="white" transform="translate(0.375)"/>
    </clipPath>
  </defs>
</svg>