<svg width="382" height="331" viewBox="0 0 382 331" fill="none" xmlns="http://www.w3.org/2000/svg">
    <path fill-rule="evenodd" clip-rule="evenodd"
        d="M336.437 235.324C340.891 226.493 344.401 216.366 346.049 205.796C357.976 193.84 370.866 173.532 370.372 146.293C370.009 126.327 364.27 104.799 348.253 86.4595C333.985 70.1217 313.419 58.4432 286.669 51.6406C267.136 30.093 224.936 1.10758 167.411 14.7049C135.458 22.2578 117.071 37.7527 107.394 53.2401C97.2591 56.8006 85.695 62.3877 75.0293 70.4205C59.2081 82.3361 43.444 101.234 40.4029 128.296C39.0033 140.751 41.3965 152.132 44.8823 161.199C41.7673 168.673 39.151 177.429 38.0556 186.758C36.1257 203.194 38.7646 224.427 55.6491 241.331C71.1511 256.851 91.33 263.641 107.592 266.772C115.007 268.2 122.214 268.981 128.747 269.371C129.774 272.454 130.845 275.581 131.905 278.548C140.196 301.755 168.596 305.481 183.974 290.151C188.181 285.957 192.947 281.501 197.077 278.136C197.379 277.89 197.67 277.657 197.948 277.437L199.877 277.976C206.365 279.792 215.925 282.453 226.976 284.104C249.34 287.446 279.546 286.911 309.193 267.491C321.109 259.686 330.307 247.476 336.437 235.324Z"
        fill="black" />
    <path fill-rule="evenodd" clip-rule="evenodd"
        d="M356.479 211.085C354.453 221.624 350.845 231.598 346.42 240.37C339.716 253.663 329.369 267.654 315.316 276.86C282.588 298.299 249.3 298.76 225.325 295.177C215.602 293.725 207.003 291.545 200.635 289.804C197.779 292.332 194.723 295.235 191.866 298.084C171.356 318.531 132.742 314.133 121.376 282.319C121.096 281.536 120.816 280.744 120.537 279.946C115.728 279.464 110.663 278.764 105.48 277.766C88.1756 274.435 65.4897 267.016 47.7415 249.248C27.6461 229.129 24.7715 203.995 26.9491 185.45C27.9875 176.606 30.2211 168.307 32.9434 160.992C29.8033 151.375 27.8629 139.744 29.29 127.044C32.7801 95.9869 50.895 74.5869 68.3065 61.4736C78.7868 53.5804 89.9751 47.8835 100.094 43.9982C111.909 27.0212 132.42 11.472 164.842 3.80852C225.476 -10.5238 270.516 18.5738 292.638 41.6366C319.517 48.9748 341.177 61.3465 356.673 79.0902C374.803 99.8495 381.154 124.12 381.553 146.09C382.083 175.243 369.157 197.351 356.479 211.085ZM346.05 205.796C344.401 216.366 340.892 226.493 336.437 235.324C330.308 247.476 321.109 259.685 309.193 267.491C279.546 286.911 249.34 287.446 226.976 284.104C215.925 282.453 206.366 279.792 199.877 277.976L197.948 277.436C197.798 277.556 197.644 277.678 197.487 277.805C197.353 277.913 197.217 278.023 197.078 278.136C192.947 281.5 188.181 285.957 183.974 290.151C168.597 305.481 140.196 301.755 131.906 278.548C130.846 275.581 129.775 272.454 128.747 269.371C122.214 268.981 115.007 268.2 107.592 266.772C91.3303 263.641 71.1514 256.851 55.6494 241.331C38.7649 224.427 36.126 203.194 38.0559 186.758C39.1513 177.429 41.7676 168.673 44.8826 161.199C41.3968 152.132 39.0037 140.751 40.4033 128.296C43.4444 101.234 59.2084 82.336 75.0296 70.4204C85.6953 62.3876 97.2594 56.8005 107.395 53.2401C117.071 37.7526 135.458 22.2577 167.411 14.7048C224.936 1.1075 267.136 30.0929 286.67 51.6405C313.419 58.4431 333.985 70.1217 348.254 86.4594C364.27 104.799 370.009 126.327 370.372 146.293C370.867 173.532 357.976 193.84 346.05 205.796Z"
        fill="white" />
    <path
        d="M149.021 262.287C145.663 252.888 142.119 241.573 140.432 235.945C123.974 236.686 87.1729 235.945 66.6459 215.395C47.7715 196.499 58.509 166.704 66.6459 153.745C62.7624 148.19 57.4434 136.527 58.8789 123.752C62.8734 88.2063 100.118 71.5442 118.241 67.6564C121.57 57.6588 132.665 40.5338 165.952 32.6657C217.458 20.4912 253.424 51.7347 264.704 67.6564C319.628 78.7646 336.272 108.757 336.826 139.304C337.27 163.742 321.477 180.219 313.525 185.403C313.525 205.953 301.32 229.082 287.45 238.167C242.513 267.604 195.356 240.944 185.925 242.61C179.912 243.673 167.157 255.153 158.106 264.176C155.241 267.032 150.382 266.098 149.021 262.287Z"
        fill="white" />
    <path fill-rule="evenodd" clip-rule="evenodd"
        d="M166.677 129.85C167.49 130.279 167.801 131.287 167.372 132.101C165.235 136.155 163.347 138.839 161.643 140.415C159.949 141.981 158.048 142.768 156.193 141.979C154.56 141.286 153.633 139.602 153.09 138.136C152.511 136.573 152.184 134.758 152.037 133.14C151.954 132.224 152.629 131.413 153.544 131.33C154.46 131.247 155.269 131.922 155.352 132.838C155.483 134.275 155.767 135.779 156.211 136.976C156.69 138.269 157.198 138.787 157.494 138.912C157.568 138.944 158.089 139.165 159.384 137.967C160.672 136.776 162.349 134.489 164.428 130.545C164.857 129.732 165.864 129.42 166.677 129.85Z"
        fill="black" stroke="black" stroke-width="1.84779" stroke-linecap="round" stroke-linejoin="round" />
</svg>