<svg width="54" height="54" viewBox="0 0 54 54" fill="none" xmlns="http://www.w3.org/2000/svg">
<rect width="53.7242" height="53.7242" rx="26.8621" fill="#121212"/>
<path d="M19.3621 18.2622C18.8496 18.2622 18.4246 17.8372 18.4246 17.3247V15.1372C18.4246 14.6247 18.8496 14.1997 19.3621 14.1997C19.8746 14.1997 20.2996 14.6247 20.2996 15.1372V17.3247C20.2996 17.8497 19.8746 18.2622 19.3621 18.2622Z" fill="white"/>
<path d="M24.3621 18.2622C23.8496 18.2622 23.4246 17.8372 23.4246 17.3247V15.1372C23.4246 14.6247 23.8496 14.1997 24.3621 14.1997C24.8746 14.1997 25.2996 14.6247 25.2996 15.1372V17.3247C25.2996 17.8497 24.8746 18.2622 24.3621 18.2622Z" fill="white"/>
<path d="M29.3621 18.2622C28.8496 18.2622 28.4246 17.8372 28.4246 17.3247V15.1372C28.4246 14.6247 28.8496 14.1997 29.3621 14.1997C29.8746 14.1997 30.2996 14.6247 30.2996 15.1372V17.3247C30.2996 17.8497 29.8746 18.2622 29.3621 18.2622Z" fill="white"/>
<path d="M39.6746 28.4245C39.6746 25.1495 37.1371 22.4995 33.9371 22.2245C33.0121 20.712 31.3621 19.687 29.4621 19.687H20.2496C17.3496 19.687 14.9871 22.0495 14.9871 24.9495V25.612H34.7246V24.9495C34.7246 24.712 34.6871 24.4745 34.6496 24.2495C36.4621 24.787 37.7996 26.437 37.7996 28.4245C37.7996 30.387 36.4996 32.0245 34.7246 32.5745V26.862H14.9871V34.0995C14.9871 36.9995 17.3496 39.362 20.2496 39.362H29.4621C32.2121 39.362 34.4496 37.237 34.6746 34.537C37.5246 33.962 39.6746 31.437 39.6746 28.4245Z" fill="white"/>
</svg>
