
<svg xmlns="http://www.w3.org/2000/svg" width="48" height="49" viewBox="0 0 48 49" fill="none">
  <path d="M24 48.6042C37.2548 48.6042 48 37.8591 48 24.6042C48 11.3494 37.2548 0.604248 24 0.604248C10.7452 0.604248 0 11.3494 0 24.6042C0 37.8591 10.7452 48.6042 24 48.6042Z" fill="white"/>
  <path d="M16.2463 26.3409L19.0937 34.2221C19.0937 34.2221 19.4497 34.9595 19.8309 34.9595C20.2121 34.9595 25.8819 29.0611 25.8819 29.0611L32.1869 16.8831L16.3479 24.3065L16.2463 26.3409Z" fill="#999999"/>
  <path d="M20.0198 28.3708L19.4732 34.18C19.4732 34.18 19.2444 35.96 21.024 34.18C22.8036 32.4 24.507 31.0274 24.507 31.0274" fill="black"/>
  <path d="M16.297 26.6179L10.4399 24.7095C10.4399 24.7095 9.73985 24.4255 9.96525 23.7815C10.0117 23.6487 10.1053 23.5357 10.3853 23.3415C11.6831 22.4369 34.4065 14.2695 34.4065 14.2695C34.4065 14.2695 35.048 14.0533 35.4264 14.1971C35.5201 14.226 35.6043 14.2794 35.6705 14.3516C35.7368 14.4238 35.7826 14.5123 35.8034 14.6081C35.8443 14.7772 35.8614 14.9512 35.8542 15.1251C35.8524 15.2755 35.8342 15.4149 35.8204 15.6335C35.682 17.8665 31.5404 34.5321 31.5404 34.5321C31.5404 34.5321 31.2926 35.5073 30.4048 35.5407C30.1867 35.5477 29.9693 35.5108 29.7657 35.432C29.5621 35.3532 29.3765 35.2343 29.2199 35.0823C27.4776 33.5837 21.456 29.5369 20.1254 28.6469C20.0954 28.6264 20.0702 28.5998 20.0513 28.5687C20.0325 28.5377 20.0205 28.5029 20.0162 28.4669C19.9977 28.3731 20.0997 28.2569 20.0997 28.2569C20.0997 28.2569 30.5849 18.9369 30.8639 17.9585C30.8855 17.8827 30.8039 17.8453 30.6943 17.8785C29.9978 18.1347 17.9255 25.7585 16.5931 26.5999C16.4971 26.6289 16.3958 26.635 16.297 26.6179Z" fill="black"/>
</svg>