<svg width="178" height="41" viewBox="0 0 178 41" fill="none" xmlns="http://www.w3.org/2000/svg">
<path fill-rule="evenodd" clip-rule="evenodd" d="M41.7512 29.1705C42.304 28.0759 42.7395 26.8205 42.9441 25.5103C44.4241 24.0282 46.0238 21.5108 45.9624 18.1344C45.9174 15.6594 45.2052 12.9908 43.2176 10.7175C41.4469 8.69224 38.8947 7.24458 35.5751 6.40134C33.151 3.73032 27.9142 0.137316 20.7754 1.82283C16.8101 2.75907 14.5283 4.67981 13.3274 6.59961C12.0697 7.04096 10.6346 7.73354 9.31099 8.72928C7.34761 10.2063 5.39132 12.5488 5.01393 15.9035C4.84024 17.4473 5.13722 18.8581 5.5698 19.9821C5.18324 20.9086 4.85856 21.9939 4.72262 23.1503C4.48312 25.1877 4.8106 27.8198 6.90594 29.9152C8.82972 31.839 11.3339 32.6807 13.3519 33.0688C14.2722 33.2458 15.1665 33.3426 15.9772 33.391C16.1048 33.7731 16.2377 34.1607 16.3692 34.5286C17.3981 37.4052 20.9225 37.8672 22.8308 35.9668C23.3529 35.4469 23.9443 34.8945 24.4569 34.4775C24.4944 34.447 24.5304 34.4181 24.5649 34.3908L24.8043 34.4576C25.6095 34.6827 26.7959 35.0126 28.1672 35.2173C30.9426 35.6315 34.6912 35.5652 38.3703 33.1579C39.849 32.1904 40.9905 30.6769 41.7512 29.1705Z" fill="black"/>
<path fill-rule="evenodd" clip-rule="evenodd" d="M44.2383 26.1659C43.9869 27.4723 43.5391 28.7087 42.99 29.7961C42.158 31.4438 40.874 33.1782 39.1301 34.3192C35.0686 36.9768 30.9376 37.0339 27.9624 36.5899C26.7558 36.4098 25.6886 36.1397 24.8984 35.9238C24.5439 36.2371 24.1647 36.597 23.8101 36.9502C21.2649 39.4847 16.4729 38.9397 15.0624 34.9959C15.0277 34.8989 14.993 34.8007 14.9584 34.7018C14.3615 34.6421 13.733 34.5553 13.0898 34.4316C10.9424 34.0186 8.12708 33.099 5.92457 30.8965C3.43076 28.4026 3.07403 25.287 3.34426 22.9882C3.47313 21.8919 3.75031 20.8631 4.08814 19.9564C3.69847 18.7643 3.45767 17.3225 3.63477 15.7483C4.06788 11.8984 6.31591 9.24571 8.47664 7.6202C9.77723 6.64178 11.1657 5.93559 12.4214 5.45398C13.8876 3.34952 16.433 1.42206 20.4565 0.472101C27.9811 -1.30453 33.5705 2.30239 36.3158 5.16124C39.6514 6.07086 42.3393 7.60445 44.2624 9.80393C46.5123 12.3772 47.3005 15.3858 47.35 18.1091C47.4157 21.7229 45.8117 24.4634 44.2383 26.1659ZM42.944 25.5103C42.7395 26.8205 42.3039 28.0759 41.7512 29.1705C40.9905 30.6769 39.849 32.1903 38.3702 33.1579C34.6911 35.5652 30.9426 35.6315 28.1672 35.2172C26.7958 35.0126 25.6095 34.6827 24.8043 34.4576L24.5649 34.3907C24.5463 34.4055 24.5272 34.4207 24.5077 34.4364C24.4911 34.4498 24.4741 34.4635 24.4569 34.4775C23.9443 34.8945 23.3529 35.4469 22.8308 35.9668C20.9225 37.8671 17.398 37.4052 16.3692 34.5285C16.2376 34.1607 16.1047 33.7731 15.9772 33.391C15.1665 33.3426 14.2721 33.2457 13.3519 33.0688C11.3339 32.6807 8.82969 31.8389 6.90592 29.9151C4.81058 27.8198 4.4831 25.1877 4.7226 23.1503C4.85854 21.9939 5.18322 20.9085 5.56978 19.9821C5.1372 18.8581 4.84021 17.4473 5.0139 15.9034C5.3913 12.5488 7.34759 10.2063 9.31097 8.72924C10.6346 7.73351 12.0696 7.04093 13.3274 6.59958C14.5282 4.67977 16.81 2.75904 20.7754 1.82279C27.9141 0.137284 33.151 3.73029 35.5751 6.40131C38.8947 7.24455 41.4469 8.69221 43.2176 10.7174C45.2052 12.9908 45.9174 15.6594 45.9624 18.1344C46.0238 21.5108 44.4241 24.0282 42.944 25.5103Z" fill="white"/>
<path d="M18.4932 32.5128C18.0765 31.3477 17.6366 29.9451 17.4273 29.2475C15.3849 29.3393 10.818 29.2475 8.27061 26.7001C5.92833 24.3578 7.26084 20.6644 8.27061 19.058C7.78867 18.3695 7.12859 16.9237 7.30674 15.3402C7.80244 10.9339 12.4244 8.86853 14.6734 8.38661C15.0866 7.14731 16.4635 5.02451 20.5944 4.04919C26.9861 2.54005 31.4494 6.41297 32.8493 8.38661C39.6652 9.76357 41.7307 13.4814 41.7995 17.268C41.8546 20.2973 39.8947 22.3398 38.9079 22.9824C38.9079 25.5297 37.3932 28.3967 35.672 29.5229C30.0954 33.1719 24.2433 29.8672 23.0729 30.0737C22.3267 30.2054 20.7438 31.6285 19.6207 32.747C19.2651 33.101 18.6621 32.9852 18.4932 32.5128Z" fill="white"/>
<ellipse cx="14.8768" cy="13.5856" rx="3.64621" ry="4.35354" transform="rotate(25.2673 14.8768 13.5856)" fill="url(#paint0_linear_159_8325)"/>
<ellipse cx="24.4707" cy="12.0869" rx="3.68002" ry="4.13517" transform="rotate(29.1306 24.4707 12.0869)" fill="url(#paint1_linear_159_8325)"/>
<ellipse cx="15.0324" cy="13.1972" rx="2.99862" ry="3.59321" transform="rotate(25.2673 15.0324 13.1972)" fill="black"/>
<ellipse cx="24.6299" cy="11.9018" rx="2.94781" ry="3.65393" transform="rotate(25.2673 24.6299 11.9018)" fill="black"/>
<path fill-rule="evenodd" clip-rule="evenodd" d="M20.6843 16.096C20.7852 16.1492 20.8238 16.2742 20.7706 16.3751C20.5054 16.8776 20.2711 17.2103 20.0596 17.4057C19.8493 17.5999 19.6134 17.6973 19.3833 17.5996C19.1806 17.5136 19.0656 17.3049 18.9982 17.1231C18.9263 16.9295 18.8858 16.7045 18.8676 16.5039C18.8572 16.3903 18.941 16.2898 19.0546 16.2795C19.1682 16.2692 19.2686 16.3529 19.279 16.4665C19.2951 16.6446 19.3304 16.831 19.3854 16.9794C19.4449 17.1397 19.508 17.2038 19.5447 17.2194C19.5539 17.2233 19.6185 17.2507 19.7793 17.1022C19.9391 16.9546 20.1472 16.6711 20.4052 16.1823C20.4585 16.0814 20.5834 16.0428 20.6843 16.096Z" fill="black" stroke="black" stroke-width="0.297101" stroke-linecap="round" stroke-linejoin="round"/>
<path d="M67.3281 14.884C66.0961 14.884 65.1521 15.26 64.4961 16.012C63.8401 16.764 63.5121 17.828 63.5121 19.204C63.5121 20.596 63.8721 21.668 64.5921 22.42C65.3281 23.172 66.3121 23.548 67.5441 23.548C68.2001 23.548 68.7521 23.46 69.2001 23.284C69.6641 23.108 70.1041 22.908 70.5201 22.684C70.7921 22.908 71.0001 23.18 71.1441 23.5C71.3041 23.804 71.3841 24.164 71.3841 24.58C71.3841 25.236 71.0161 25.796 70.2801 26.26C69.5601 26.708 68.4561 26.932 66.9681 26.932C65.8961 26.932 64.8881 26.78 63.9441 26.476C63.0001 26.172 62.1761 25.708 61.4721 25.084C60.7681 24.444 60.2081 23.644 59.7921 22.684C59.3921 21.708 59.1921 20.548 59.1921 19.204C59.1921 17.956 59.3841 16.86 59.7681 15.916C60.1681 14.956 60.7041 14.148 61.3761 13.492C62.0641 12.836 62.8641 12.34 63.7761 12.004C64.6881 11.668 65.6641 11.5 66.7041 11.5C68.1761 11.5 69.3121 11.74 70.1121 12.22C70.9281 12.7 71.3361 13.316 71.3361 14.068C71.3361 14.484 71.2321 14.844 71.0241 15.148C70.8161 15.452 70.5761 15.692 70.3041 15.868C69.8881 15.596 69.4401 15.364 68.9601 15.172C68.4961 14.98 67.9521 14.884 67.3281 14.884ZM77.2035 26.476C77.0435 26.524 76.7875 26.572 76.4355 26.62C76.0995 26.668 75.7475 26.692 75.3795 26.692C75.0275 26.692 74.7075 26.668 74.4195 26.62C74.1475 26.572 73.9155 26.476 73.7235 26.332C73.5315 26.188 73.3795 25.996 73.2675 25.756C73.1715 25.5 73.1235 25.172 73.1235 24.772V17.572C73.1235 17.204 73.1875 16.892 73.3155 16.636C73.4595 16.364 73.6595 16.124 73.9155 15.916C74.1715 15.708 74.4835 15.524 74.8515 15.364C75.2355 15.188 75.6435 15.036 76.0755 14.908C76.5075 14.78 76.9555 14.684 77.4195 14.62C77.8835 14.54 78.3475 14.5 78.8115 14.5C79.5795 14.5 80.1875 14.652 80.6355 14.956C81.0835 15.244 81.3075 15.724 81.3075 16.396C81.3075 16.62 81.2755 16.844 81.2115 17.068C81.1475 17.276 81.0675 17.468 80.9715 17.644C80.6355 17.644 80.2915 17.66 79.9395 17.692C79.5875 17.724 79.2435 17.772 78.9075 17.836C78.5715 17.9 78.2515 17.972 77.9475 18.052C77.6595 18.116 77.4115 18.196 77.2035 18.292V26.476ZM88.7134 26.884C87.7694 26.884 86.8894 26.756 86.0734 26.5C85.2734 26.228 84.5694 25.828 83.9614 25.3C83.3694 24.772 82.8974 24.108 82.5454 23.308C82.2094 22.508 82.0414 21.572 82.0414 20.5C82.0414 19.444 82.2094 18.54 82.5454 17.788C82.8974 17.02 83.3534 16.396 83.9134 15.916C84.4734 15.42 85.1134 15.06 85.8334 14.836C86.5534 14.596 87.2894 14.476 88.0414 14.476C88.8894 14.476 89.6574 14.604 90.3454 14.86C91.0494 15.116 91.6494 15.468 92.1454 15.916C92.6574 16.364 93.0494 16.9 93.3214 17.524C93.6094 18.148 93.7534 18.828 93.7534 19.564C93.7534 20.108 93.6014 20.524 93.2974 20.812C92.9934 21.1 92.5694 21.284 92.0254 21.364L86.0974 22.252C86.2734 22.78 86.6334 23.18 87.1774 23.452C87.7214 23.708 88.3454 23.836 89.0494 23.836C89.7054 23.836 90.3214 23.756 90.8974 23.596C91.4894 23.42 91.9694 23.22 92.3374 22.996C92.5934 23.156 92.8094 23.38 92.9854 23.668C93.1614 23.956 93.2494 24.26 93.2494 24.58C93.2494 25.3 92.9134 25.836 92.2414 26.188C91.7294 26.46 91.1534 26.644 90.5134 26.74C89.8734 26.836 89.2734 26.884 88.7134 26.884ZM88.0414 17.452C87.6574 17.452 87.3214 17.516 87.0334 17.644C86.7614 17.772 86.5374 17.94 86.3614 18.148C86.1854 18.34 86.0494 18.564 85.9534 18.82C85.8734 19.06 85.8254 19.308 85.8094 19.564L89.9134 18.892C89.8654 18.572 89.6894 18.252 89.3854 17.932C89.0814 17.612 88.6334 17.452 88.0414 17.452ZM100.709 23.908C100.981 23.908 101.277 23.884 101.597 23.836C101.933 23.772 102.181 23.692 102.341 23.596V21.676L100.613 21.82C100.165 21.852 99.7972 21.948 99.5092 22.108C99.2212 22.268 99.0772 22.508 99.0772 22.828C99.0772 23.148 99.1972 23.412 99.4372 23.62C99.6932 23.812 100.117 23.908 100.709 23.908ZM100.517 14.476C101.381 14.476 102.165 14.564 102.869 14.74C103.589 14.916 104.197 15.188 104.693 15.556C105.205 15.908 105.597 16.364 105.869 16.924C106.141 17.468 106.277 18.116 106.277 18.868V24.244C106.277 24.66 106.157 25.004 105.917 25.276C105.693 25.532 105.421 25.756 105.101 25.948C104.061 26.572 102.597 26.884 100.709 26.884C99.8612 26.884 99.0932 26.804 98.4052 26.644C97.7332 26.484 97.1492 26.244 96.6532 25.924C96.1732 25.604 95.7972 25.196 95.5252 24.7C95.2692 24.204 95.1412 23.628 95.1412 22.972C95.1412 21.868 95.4692 21.02 96.1252 20.428C96.7812 19.836 97.7972 19.468 99.1732 19.324L102.317 18.988V18.82C102.317 18.356 102.109 18.028 101.693 17.836C101.293 17.628 100.709 17.524 99.9412 17.524C99.3332 17.524 98.7412 17.588 98.1652 17.716C97.5892 17.844 97.0692 18.004 96.6052 18.196C96.3972 18.052 96.2212 17.836 96.0772 17.548C95.9332 17.244 95.8612 16.932 95.8612 16.612C95.8612 16.196 95.9572 15.868 96.1492 15.628C96.3572 15.372 96.6692 15.156 97.0852 14.98C97.5492 14.804 98.0932 14.676 98.7172 14.596C99.3572 14.516 99.9572 14.476 100.517 14.476ZM114.364 14.476C115.02 14.476 115.66 14.572 116.284 14.764C116.924 14.94 117.476 15.212 117.94 15.58C118.42 15.26 118.956 14.996 119.548 14.788C120.156 14.58 120.884 14.476 121.732 14.476C122.34 14.476 122.932 14.556 123.508 14.716C124.1 14.876 124.62 15.132 125.068 15.484C125.532 15.82 125.9 16.276 126.172 16.852C126.444 17.412 126.58 18.1 126.58 18.916V26.476C126.42 26.524 126.164 26.572 125.812 26.62C125.476 26.668 125.124 26.692 124.756 26.692C124.404 26.692 124.084 26.668 123.796 26.62C123.524 26.572 123.292 26.476 123.1 26.332C122.908 26.188 122.756 25.996 122.644 25.756C122.548 25.5 122.5 25.172 122.5 24.772V19.036C122.5 18.556 122.364 18.212 122.092 18.004C121.82 17.78 121.452 17.668 120.988 17.668C120.764 17.668 120.524 17.724 120.268 17.836C120.012 17.932 119.82 18.036 119.692 18.148C119.708 18.212 119.716 18.276 119.716 18.34C119.716 18.388 119.716 18.436 119.716 18.484V26.476C119.54 26.524 119.276 26.572 118.924 26.62C118.588 26.668 118.244 26.692 117.892 26.692C117.54 26.692 117.22 26.668 116.932 26.62C116.66 26.572 116.428 26.476 116.236 26.332C116.044 26.188 115.892 25.996 115.78 25.756C115.684 25.5 115.636 25.172 115.636 24.772V19.036C115.636 18.556 115.484 18.212 115.18 18.004C114.892 17.78 114.54 17.668 114.124 17.668C113.836 17.668 113.588 17.716 113.38 17.812C113.172 17.892 112.996 17.972 112.852 18.052V26.476C112.692 26.524 112.436 26.572 112.084 26.62C111.748 26.668 111.396 26.692 111.028 26.692C110.676 26.692 110.356 26.668 110.068 26.62C109.796 26.572 109.564 26.476 109.372 26.332C109.18 26.188 109.028 25.996 108.916 25.756C108.82 25.5 108.772 25.172 108.772 24.772V17.524C108.772 17.092 108.86 16.748 109.036 16.492C109.228 16.236 109.484 15.996 109.804 15.772C110.348 15.388 111.02 15.076 111.82 14.836C112.636 14.596 113.484 14.476 114.364 14.476ZM139.633 18.7C140.305 18.7 140.817 18.548 141.169 18.244C141.537 17.924 141.721 17.444 141.721 16.804C141.721 16.196 141.529 15.732 141.145 15.412C140.777 15.076 140.233 14.908 139.513 14.908C139.257 14.908 139.041 14.916 138.865 14.932C138.705 14.932 138.537 14.948 138.361 14.98V18.7H139.633ZM138.385 26.404C138.209 26.452 137.929 26.5 137.545 26.548C137.177 26.596 136.809 26.62 136.441 26.62C136.073 26.62 135.745 26.588 135.457 26.524C135.185 26.476 134.953 26.38 134.761 26.236C134.569 26.092 134.425 25.892 134.329 25.636C134.233 25.38 134.185 25.044 134.185 24.628V13.324C134.185 12.988 134.273 12.732 134.449 12.556C134.641 12.364 134.897 12.212 135.217 12.1C135.761 11.908 136.377 11.772 137.065 11.692C137.769 11.596 138.473 11.548 139.177 11.548C141.385 11.548 143.073 12.02 144.241 12.964C145.409 13.908 145.993 15.188 145.993 16.804C145.993 17.588 145.865 18.3 145.609 18.94C145.369 19.564 145.001 20.108 144.505 20.572C144.025 21.02 143.409 21.372 142.657 21.628C141.921 21.868 141.065 21.988 140.089 21.988H138.385V26.404ZM150.5 12.388C150.772 12.228 151.18 12.076 151.724 11.932C152.284 11.788 152.844 11.716 153.404 11.716C154.204 11.716 154.908 11.836 155.516 12.076C156.14 12.3 156.54 12.66 156.716 13.156C157.004 13.988 157.316 14.956 157.652 16.06C157.988 17.164 158.324 18.308 158.66 19.492C158.996 20.66 159.324 21.82 159.644 22.972C159.964 24.108 160.244 25.116 160.484 25.996C160.292 26.22 160.004 26.396 159.62 26.524C159.236 26.668 158.78 26.74 158.252 26.74C157.868 26.74 157.54 26.708 157.268 26.644C157.012 26.58 156.796 26.484 156.62 26.356C156.46 26.228 156.324 26.06 156.212 25.852C156.116 25.644 156.028 25.404 155.948 25.132L155.516 23.476H151.172C151.044 23.956 150.916 24.452 150.788 24.964C150.66 25.476 150.532 25.972 150.404 26.452C150.18 26.532 149.94 26.596 149.684 26.644C149.444 26.708 149.148 26.74 148.796 26.74C147.98 26.74 147.372 26.604 146.972 26.332C146.588 26.044 146.396 25.652 146.396 25.156C146.396 24.932 146.428 24.708 146.492 24.484C146.556 24.26 146.628 23.996 146.708 23.692C146.82 23.26 146.972 22.724 147.164 22.084C147.372 21.444 147.596 20.756 147.836 20.02C148.076 19.268 148.332 18.5 148.604 17.716C148.876 16.932 149.132 16.196 149.372 15.508C149.612 14.804 149.828 14.18 150.02 13.636C150.228 13.092 150.388 12.676 150.5 12.388ZM153.38 15.484C153.156 16.156 152.9 16.908 152.612 17.74C152.34 18.556 152.092 19.388 151.868 20.236H154.844C154.62 19.372 154.388 18.532 154.148 17.716C153.924 16.884 153.716 16.14 153.524 15.484H153.38ZM166.627 23.38C166.803 23.412 167.019 23.444 167.275 23.476C167.531 23.492 167.771 23.5 167.995 23.5C168.539 23.5 169.035 23.42 169.483 23.26C169.947 23.1 170.339 22.852 170.659 22.516C170.995 22.18 171.251 21.748 171.427 21.22C171.619 20.676 171.715 20.028 171.715 19.276C171.715 17.836 171.379 16.756 170.707 16.036C170.035 15.3 169.139 14.932 168.019 14.932C167.795 14.932 167.563 14.94 167.323 14.956C167.099 14.972 166.867 14.996 166.627 15.028V23.38ZM167.971 26.884C167.699 26.884 167.387 26.876 167.035 26.86C166.683 26.844 166.315 26.812 165.931 26.764C165.563 26.716 165.187 26.652 164.803 26.572C164.435 26.508 164.091 26.412 163.771 26.284C162.891 25.948 162.451 25.364 162.451 24.532V13.324C162.451 12.988 162.539 12.732 162.715 12.556C162.907 12.364 163.163 12.212 163.483 12.1C164.171 11.876 164.899 11.732 165.667 11.668C166.435 11.588 167.123 11.548 167.731 11.548C168.979 11.548 170.107 11.7 171.115 12.004C172.139 12.308 173.011 12.78 173.731 13.42C174.467 14.044 175.035 14.836 175.435 15.796C175.835 16.756 176.035 17.892 176.035 19.204C176.035 20.484 175.843 21.604 175.459 22.564C175.075 23.508 174.523 24.308 173.803 24.964C173.099 25.604 172.251 26.084 171.259 26.404C170.267 26.724 169.171 26.884 167.971 26.884Z" fill="#121212"/>
<defs>
<linearGradient id="paint0_linear_159_8325" x1="14.8768" y1="9.23206" x2="14.8768" y2="17.9391" gradientUnits="userSpaceOnUse">
<stop stop-color="#5446FF"/>
<stop offset="0.5" stop-color="#D277FF"/>
<stop offset="1" stop-color="#FFE0C6"/>
</linearGradient>
<linearGradient id="paint1_linear_159_8325" x1="24.4707" y1="7.95168" x2="24.4707" y2="16.222" gradientUnits="userSpaceOnUse">
<stop stop-color="#5446FF"/>
<stop offset="0.5" stop-color="#D277FF"/>
<stop offset="1" stop-color="#FFE0C6"/>
</linearGradient>
</defs>
</svg>
