<svg width="48" height="41" viewBox="0 0 48 41" fill="none" xmlns="http://www.w3.org/2000/svg">
<g id="logo">
<path id="Union" fill-rule="evenodd" clip-rule="evenodd" d="M41.7512 29.1705C42.304 28.0759 42.7395 26.8205 42.9441 25.5103C44.4241 24.0282 46.0238 21.5108 45.9624 18.1344C45.9174 15.6594 45.2053 12.9908 43.2176 10.7175C41.4469 8.69224 38.8947 7.24458 35.5751 6.40134C33.151 3.73032 27.9142 0.137316 20.7754 1.82283C16.8101 2.75907 14.5283 4.67981 13.3274 6.59961C12.0697 7.04096 10.6346 7.73354 9.311 8.72928C7.34763 10.2063 5.39134 12.5488 5.01394 15.9035C4.84025 17.4473 5.13724 18.8581 5.56982 19.9821C5.18326 20.9086 4.85858 21.9939 4.72264 23.1503C4.48314 25.1877 4.81062 27.8198 6.90596 29.9152C8.82973 31.839 11.3339 32.6807 13.3519 33.0688C14.2722 33.2458 15.1665 33.3426 15.9772 33.391C16.1048 33.7731 16.2377 34.1607 16.3692 34.5286C17.3981 37.4052 20.9225 37.8672 22.8308 35.9668C23.3529 35.4469 23.9444 34.8945 24.4569 34.4775C24.4944 34.447 24.5304 34.4181 24.565 34.3908L24.8043 34.4576C25.6096 34.6827 26.7959 35.0126 28.1673 35.2173C30.9427 35.6315 34.6912 35.5652 38.3703 33.1579C39.849 32.1904 40.9905 30.6769 41.7512 29.1705Z" fill="black"/>
<path id="Union (Stroke)" fill-rule="evenodd" clip-rule="evenodd" d="M44.2383 26.1659C43.9869 27.4723 43.5392 28.7087 42.9901 29.7961C42.158 31.4438 40.874 33.1782 39.1302 34.3192C35.0686 36.9768 30.9376 37.0339 27.9624 36.5899C26.7558 36.4098 25.6887 36.1397 24.8984 35.9238C24.5439 36.2371 24.1648 36.597 23.8101 36.9502C21.265 39.4847 16.473 38.9397 15.0625 34.9959C15.0278 34.8989 14.9931 34.8007 14.9584 34.7018C14.3616 34.6421 13.7331 34.5553 13.0899 34.4316C10.9424 34.0186 8.12712 33.099 5.92461 30.8965C3.43081 28.4026 3.07408 25.287 3.3443 22.9882C3.47318 21.8919 3.75036 20.8631 4.08819 19.9564C3.69851 18.7643 3.45771 17.3225 3.63482 15.7483C4.06792 11.8984 6.31595 9.24571 8.47668 7.6202C9.77727 6.64178 11.1657 5.93559 12.4215 5.45398C13.8877 3.34952 16.4331 1.42206 20.4565 0.472101C27.9812 -1.30453 33.5705 2.30239 36.3158 5.16124C39.6515 6.07086 42.3394 7.60445 44.2624 9.80393C46.5123 12.3772 47.3005 15.3858 47.35 18.1091C47.4157 21.7229 45.8117 24.4634 44.2383 26.1659ZM42.9441 25.5103C42.7396 26.8205 42.304 28.0759 41.7512 29.1705C40.9905 30.6769 39.849 32.1903 38.3703 33.1579C34.6912 35.5652 30.9427 35.6315 28.1673 35.2172C26.7959 35.0126 25.6096 34.6827 24.8043 34.4576L24.565 34.3907C24.5463 34.4055 24.5273 34.4207 24.5078 34.4364C24.4911 34.4498 24.4742 34.4635 24.4569 34.4775C23.9444 34.8945 23.3529 35.4469 22.8308 35.9668C20.9225 37.8671 17.3981 37.4052 16.3692 34.5285C16.2377 34.1607 16.1048 33.7731 15.9772 33.391C15.1666 33.3426 14.2722 33.2457 13.3519 33.0688C11.3339 32.6807 8.82974 31.8389 6.90597 29.9151C4.81063 27.8198 4.48314 25.1877 4.72265 23.1503C4.85858 21.9939 5.18326 20.9085 5.56982 19.9821C5.13724 18.8581 4.84026 17.4473 5.01395 15.9034C5.39134 12.5488 7.34763 10.2063 9.31101 8.72924C10.6346 7.73351 12.0697 7.04093 13.3274 6.59958C14.5283 4.67977 16.8101 2.75904 20.7754 1.82279C27.9142 0.137284 33.151 3.73029 35.5751 6.40131C38.8947 7.24455 41.4469 8.69221 43.2176 10.7174C45.2053 12.9908 45.9174 15.6594 45.9624 18.1344C46.0238 21.5108 44.4241 24.0282 42.9441 25.5103Z" fill="white"/>
<path id="Vector 30" d="M18.4932 32.5128C18.0766 31.3477 17.6367 29.9451 17.4274 29.2475C15.3849 29.3393 10.818 29.2475 8.27067 26.7001C5.92839 24.3578 7.2609 20.6644 8.27067 19.058C7.78873 18.3695 7.12865 16.9237 7.3068 15.3402C7.8025 10.9339 12.4245 8.86853 14.6735 8.38661C15.0866 7.14731 16.4636 5.02451 20.5944 4.04919C26.9862 2.54005 31.4494 6.41297 32.8493 8.38661C39.6653 9.76357 41.7307 13.4814 41.7996 17.268C41.8547 20.2973 39.8948 22.3398 38.908 22.9824C38.908 25.5297 37.3933 28.3967 35.6721 29.5229C30.0954 33.1719 24.2434 29.8672 23.0729 30.0737C22.3267 30.2054 20.7439 31.6285 19.6207 32.747C19.2652 33.101 18.6622 32.9852 18.4932 32.5128Z" fill="white"/>
<ellipse id="Ellipse 1" cx="14.8769" cy="13.5856" rx="3.64621" ry="4.35354" transform="rotate(25.2673 14.8769 13.5856)" fill="url(#paint0_linear_134_8802)"/>
<ellipse id="Ellipse 3" cx="24.4707" cy="12.0869" rx="3.68002" ry="4.13517" transform="rotate(29.1306 24.4707 12.0869)" fill="url(#paint1_linear_134_8802)"/>
<ellipse id="Ellipse 2" cx="15.0323" cy="13.1972" rx="2.99862" ry="3.59321" transform="rotate(25.2673 15.0323 13.1972)" fill="black"/>
<ellipse id="Ellipse 4" cx="24.6299" cy="11.9018" rx="2.94781" ry="3.65393" transform="rotate(25.2673 24.6299 11.9018)" fill="black"/>
<path id="Vector 29 (Stroke)" fill-rule="evenodd" clip-rule="evenodd" d="M20.6843 16.096C20.7852 16.1492 20.8238 16.2742 20.7705 16.3751C20.5053 16.8776 20.2711 17.2103 20.0595 17.4057C19.8493 17.5999 19.6134 17.6973 19.3832 17.5996C19.1806 17.5136 19.0656 17.3049 18.9981 17.1231C18.9263 16.9295 18.8858 16.7045 18.8675 16.5039C18.8572 16.3903 18.9409 16.2898 19.0545 16.2795C19.1681 16.2692 19.2686 16.3529 19.2789 16.4665C19.2951 16.6446 19.3303 16.831 19.3854 16.9794C19.4449 17.1397 19.508 17.2038 19.5446 17.2194C19.5539 17.2233 19.6185 17.2507 19.7793 17.1022C19.9391 16.9546 20.1472 16.6711 20.4052 16.1823C20.4585 16.0814 20.5834 16.0428 20.6843 16.096Z" fill="black" stroke="black" stroke-width="0.297101" stroke-linecap="round" stroke-linejoin="round"/>
</g>
<defs>
<linearGradient id="paint0_linear_134_8802" x1="14.8769" y1="9.23206" x2="14.8769" y2="17.9391" gradientUnits="userSpaceOnUse">
<stop stop-color="#5446FF"/>
<stop offset="0.5" stop-color="#D277FF"/>
<stop offset="1" stop-color="#FFE0C6"/>
</linearGradient>
<linearGradient id="paint1_linear_134_8802" x1="24.4707" y1="7.95168" x2="24.4707" y2="16.222" gradientUnits="userSpaceOnUse">
<stop stop-color="#5446FF"/>
<stop offset="0.5" stop-color="#D277FF"/>
<stop offset="1" stop-color="#FFE0C6"/>
</linearGradient>
</defs>
</svg>
